<svg width="20" height="18" viewBox="0 0 20 18" fill="none" xmlns="http://www.w3.org/2000/svg">
<path d="M18 14.8216C18.3852 14.8218 18.7556 14.9702 19.0344 15.236C19.3132 15.5018 19.479 15.8647 19.4975 16.2495C19.516 16.6343 19.3858 17.0114 19.1338 17.3028C18.8818 17.5942 18.5274 17.7774 18.144 17.8146L18 17.8216H2C1.61478 17.8214 1.24441 17.673 0.965613 17.4072C0.686821 17.1414 0.520988 16.7785 0.502476 16.3937C0.483964 16.0089 0.614192 15.6318 0.866175 15.3404C1.11816 15.049 1.47258 14.8658 1.856 14.8286L2 14.8216H18ZM18 7.82159C18.3978 7.82159 18.7794 7.97963 19.0607 8.26093C19.342 8.54224 19.5 8.92377 19.5 9.32159C19.5 9.71942 19.342 10.101 19.0607 10.3823C18.7794 10.6636 18.3978 10.8216 18 10.8216H2C1.60218 10.8216 1.22064 10.6636 0.93934 10.3823C0.658035 10.101 0.5 9.71942 0.5 9.32159C0.5 8.92377 0.658035 8.54224 0.93934 8.26093C1.22064 7.97963 1.60218 7.82159 2 7.82159H18ZM18 0.821594C18.3978 0.821594 18.7794 0.97963 19.0607 1.26093C19.342 1.54224 19.5 1.92377 19.5 2.32159C19.5 2.71942 19.342 3.10095 19.0607 3.38225C18.7794 3.66356 18.3978 3.82159 18 3.82159H2C1.60218 3.82159 1.22064 3.66356 0.93934 3.38225C0.658035 3.10095 0.5 2.71942 0.5 2.32159C0.5 1.92377 0.658035 1.54224 0.93934 1.26093C1.22064 0.97963 1.60218 0.821594 2 0.821594H18Z" fill="black"/>
</svg>
