<svg width="27" height="20" viewBox="0 0 27 20" fill="none" xmlns="http://www.w3.org/2000/svg">
<g clip-path="url(#clip0_20_2205)">
<path fill-rule="evenodd" clip-rule="evenodd" d="M7.59375 3.33335L7.59375 16.6667H5.90625L5.90625 3.33335H7.59375ZM14.3438 3.33335L14.3438 16.6667H12.6562V3.33335H14.3438ZM21.0938 16.6667V3.33335H19.4062V16.6667H21.0938Z" fill="black" fill-opacity="0.6"/>
<path d="M7.59375 16.6667V17.9167H8.84375V16.6667H7.59375ZM7.59375 3.33335H8.84375L8.84375 2.08335H7.59375V3.33335ZM5.90625 16.6667H4.65625V17.9167H5.90625V16.6667ZM5.90625 3.33335V2.08335H4.65625V3.33335H5.90625ZM14.3438 16.6667V17.9167H15.5938V16.6667H14.3438ZM14.3438 3.33335H15.5938V2.08335H14.3438V3.33335ZM12.6562 16.6667H11.4062V17.9167H12.6562V16.6667ZM12.6562 3.33335V2.08335H11.4062V3.33335H12.6562ZM21.0938 3.33335H22.3438V2.08335H21.0938V3.33335ZM21.0938 16.6667V17.9167H22.3438V16.6667H21.0938ZM19.4062 3.33335V2.08335H18.1562V3.33335H19.4062ZM19.4062 16.6667H18.1562V17.9167H19.4062V16.6667ZM8.84375 16.6667V3.33335H6.34375L6.34375 16.6667H8.84375ZM5.90625 17.9167H7.59375V15.4167H5.90625V17.9167ZM4.65625 3.33335L4.65625 16.6667H7.15625L7.15625 3.33335H4.65625ZM7.59375 2.08335H5.90625V4.58335H7.59375V2.08335ZM15.5938 16.6667L15.5938 3.33335H13.0938V16.6667H15.5938ZM12.6562 17.9167H14.3438V15.4167H12.6562V17.9167ZM11.4062 3.33335V16.6667H13.9062L13.9063 3.33335H11.4062ZM14.3438 2.08335H12.6562V4.58335H14.3438V2.08335ZM19.8438 3.33335V16.6667H22.3438V3.33335H19.8438ZM19.4062 4.58335H21.0938V2.08335H19.4062V4.58335ZM20.6562 16.6667V3.33335H18.1562V16.6667H20.6562ZM21.0938 15.4167H19.4062V17.9167H21.0938V15.4167Z" fill="#606060"/>
</g>
<defs>
<clipPath id="clip0_20_2205">
<rect width="20" height="27" fill="white" transform="matrix(0 -1 1 0 0 20)"/>
</clipPath>
</defs>
</svg>
