<svg width="24" height="24" viewBox="0 0 24 24" fill="none" xmlns="http://www.w3.org/2000/svg">
<path d="M7.88805 10.7384C8.14584 10.7384 8.39308 10.636 8.57537 10.4537C8.75766 10.2714 8.86006 10.0242 8.86006 9.76636C8.86006 9.50856 8.75766 9.26133 8.57537 9.07904C8.39308 8.89675 8.14584 8.79434 7.88805 8.79434C7.63025 8.79434 7.38302 8.89675 7.20073 9.07904C7.01844 9.26133 6.91603 9.50856 6.91603 9.76636C6.91603 10.0242 7.01844 10.2714 7.20073 10.4537C7.38302 10.636 7.63025 10.7384 7.88805 10.7384ZM12.7481 12.6805C12.7481 12.9383 12.6457 13.1855 12.4634 13.3678C12.2811 13.5501 12.0339 13.6525 11.7761 13.6525C11.5183 13.6525 11.2711 13.5501 11.0888 13.3678C10.9065 13.1855 10.8041 12.9383 10.8041 12.6805C10.8041 12.4227 10.9065 12.1754 11.0888 11.9931C11.2711 11.8109 11.5183 11.7084 11.7761 11.7084C12.0339 11.7084 12.2811 11.8109 12.4634 11.9931C12.6457 12.1754 12.7481 12.4227 12.7481 12.6805ZM7.88805 16.5666C8.14584 16.5666 8.39308 16.4642 8.57537 16.2819C8.75766 16.0996 8.86006 15.8524 8.86006 15.5946C8.86006 15.3368 8.75766 15.0895 8.57537 14.9072C8.39308 14.725 8.14584 14.6226 7.88805 14.6226C7.63025 14.6226 7.38302 14.725 7.20073 14.9072C7.01844 15.0895 6.91603 15.3368 6.91603 15.5946C6.91603 15.8524 7.01844 16.0996 7.20073 16.2819C7.38302 16.4642 7.63025 16.5666 7.88805 16.5666ZM3.99998 4.58551C3.99998 3.1304 5.19556 1.859 6.74107 2.01161C11.7736 2.51023 16.4361 4.87856 19.8069 8.64854C20.847 9.80815 20.5233 11.5296 19.3413 12.3859C17.8036 13.5018 15.5116 15.163 14.2062 16.1117C14.2042 16.5365 14.2042 16.8125 14.2052 17.1731V17.7835C14.2053 18.0322 14.1509 18.2778 14.0459 18.5032C13.9408 18.7286 13.7876 18.9282 13.5971 19.0879C13.4066 19.2477 13.1833 19.3637 12.9431 19.4279C12.7029 19.4921 12.4515 19.5028 12.2067 19.4593C12.0084 20.2622 11.3008 20.9436 10.3171 20.9436C9.63671 20.9436 9.09043 20.6179 8.75314 20.1514L7.46522 21.0816C6.01886 22.1255 3.99512 21.0923 3.99609 19.3067L3.99998 4.58551ZM6.59818 3.46283C6.00622 3.40451 5.45704 3.89343 5.45704 4.58551V5.09096C7.89705 5.19359 10.2866 5.81893 12.4641 6.9247C14.6416 8.03046 16.5562 9.59088 18.0787 11.5004L18.4859 11.2049C19.0478 10.7967 19.1197 10.0648 18.7212 9.62055C15.5932 6.12341 11.2673 3.92678 6.59818 3.46477M5.45412 19.3086C5.45401 19.4431 5.49106 19.5749 5.56118 19.6896C5.63129 19.8042 5.73175 19.8973 5.85145 19.9584C5.97114 20.0196 6.10541 20.0465 6.23942 20.0361C6.37343 20.0257 6.50197 19.9785 6.61082 19.8996L8.67927 18.4095C8.78812 18.3312 8.91645 18.2844 9.05016 18.2744C9.18387 18.2643 9.31778 18.2913 9.43714 18.3523C9.55651 18.4134 9.65671 18.5063 9.72673 18.6206C9.79675 18.735 9.83388 18.8664 9.83403 19.0005C9.83403 19.263 10.0372 19.4865 10.3171 19.4865C10.3812 19.4872 10.4448 19.4751 10.5042 19.4509C10.5635 19.4267 10.6175 19.391 10.6629 19.3457C10.7083 19.3005 10.7443 19.2467 10.7687 19.1874C10.7931 19.1281 10.8055 19.0646 10.8051 19.0005V17.7845C10.8051 17.5912 10.8819 17.4057 11.0186 17.269C11.1553 17.1323 11.3407 17.0555 11.5341 17.0555C11.7274 17.0555 11.9129 17.1323 12.0496 17.269C12.1863 17.4057 12.2631 17.5912 12.2631 17.7845C12.2631 17.9206 12.371 18.0275 12.5042 18.0275C12.5686 18.0275 12.6304 18.0019 12.676 17.9564C12.7216 17.9108 12.7472 17.849 12.7472 17.7845V17.1799C12.7462 16.7231 12.7452 16.3945 12.752 15.7326C12.7529 15.6188 12.7805 15.5067 12.8325 15.4054C12.8844 15.3042 12.9594 15.2165 13.0514 15.1494C13.9282 14.5117 15.4776 13.3881 16.8967 12.3597C15.5108 10.6356 13.7739 9.22613 11.8014 8.22495C9.82883 7.22376 7.66583 6.65378 5.45606 6.55287L5.45412 19.3086Z" fill="black" fill-opacity="0.75"/>
</svg>
