<svg width="24" height="24" viewBox="0 0 24 24" fill="none" xmlns="http://www.w3.org/2000/svg">
<path d="M20.88 6.83604L12.63 2.69557C12.4371 2.59791 12.2204 2.54669 12 2.54669C11.7796 2.54669 11.5629 2.59791 11.37 2.69557L3.12 6.83604C2.91357 6.93957 2.7413 7.09208 2.62123 7.27759C2.50115 7.4631 2.4377 7.67478 2.4375 7.89049V16.1096C2.4377 16.3253 2.50115 16.5369 2.62123 16.7224C2.7413 16.908 2.91357 17.0605 3.12 17.164L11.37 21.3045C11.5629 21.402 11.7797 21.4531 12 21.4531C12.2203 21.4531 12.4371 21.402 12.63 21.3045L20.88 17.164C21.0864 17.0605 21.2587 16.908 21.3788 16.7224C21.4988 16.5369 21.5623 16.3253 21.5625 16.1096V7.89049C21.5623 7.67478 21.4988 7.4631 21.3788 7.27759C21.2587 7.09208 21.0864 6.93957 20.88 6.83604ZM11.9062 3.59963C11.9338 3.58579 11.9648 3.57853 11.9963 3.57853C12.0277 3.57853 12.0587 3.58579 12.0863 3.59963L19.9228 7.53127L16.7409 9.12713L8.81719 5.15166L11.9062 3.59963ZM11.4375 20.1641L3.65625 16.2599C3.6275 16.2447 3.60367 16.2228 3.5872 16.1964C3.57073 16.1699 3.5622 16.14 3.5625 16.1096V8.44736L11.4375 12.4005V20.1641ZM4.07719 7.53127L7.64625 5.73947L15.5691 9.71494L12 11.505L4.07719 7.53127ZM20.4375 16.1096C20.4378 16.14 20.4293 16.1699 20.4128 16.1964C20.3963 16.2228 20.3725 16.2447 20.3438 16.2599L12.5625 20.1641V12.3988L15.9375 10.7049V14.0625C15.9375 14.1993 15.9968 14.3304 16.1023 14.4271C16.2077 14.5238 16.3508 14.5781 16.5 14.5781C16.6492 14.5781 16.7923 14.5238 16.8977 14.4271C17.0032 14.3304 17.0625 14.1993 17.0625 14.0625V10.1412L20.4375 8.44736V16.1096Z" fill="#404040"/>
</svg>
