<svg width="24" height="24" viewBox="0 0 24 24" fill="none" xmlns="http://www.w3.org/2000/svg">
<path fill-rule="evenodd" clip-rule="evenodd" d="M12 13.5C13.0609 13.5 14.0783 13.0786 14.8284 12.3284C15.5786 11.5783 16 10.5609 16 9.5C16 8.43913 15.5786 7.42172 14.8284 6.67157C14.0783 5.92143 13.0609 5.5 12 5.5C10.9391 5.5 9.92172 5.92143 9.17157 6.67157C8.42143 7.42172 8 8.43913 8 9.5C8 10.5609 8.42143 11.5783 9.17157 12.3284C9.92172 13.0786 10.9391 13.5 12 13.5ZM12 12.5C12.394 12.5 12.7841 12.4224 13.1481 12.2716C13.512 12.1209 13.8427 11.8999 14.1213 11.6213C14.3999 11.3427 14.6209 11.012 14.7716 10.6481C14.9224 10.2841 15 9.89397 15 9.5C15 9.10603 14.9224 8.71593 14.7716 8.35195C14.6209 7.98797 14.3999 7.65726 14.1213 7.37868C13.8427 7.1001 13.512 6.87913 13.1481 6.72836C12.7841 6.5776 12.394 6.5 12 6.5C11.2044 6.5 10.4413 6.81607 9.87868 7.37868C9.31607 7.94129 9 8.70435 9 9.5C9 10.2956 9.31607 11.0587 9.87868 11.6213C10.4413 12.1839 11.2044 12.5 12 12.5Z" fill="black" fill-opacity="0.75"/>
<path d="M12 13.6C13.0874 13.6 14.1302 13.168 14.8991 12.3991C15.668 11.6302 16.1 10.5874 16.1 9.5C16.1 8.41261 15.668 7.36976 14.8991 6.60086C14.1302 5.83196 13.0874 5.4 12 5.4C10.9126 5.4 9.86976 5.83196 9.10086 6.60086C8.33196 7.36976 7.9 8.41261 7.9 9.5C7.9 10.5874 8.33196 11.6302 9.10086 12.3991C9.86976 13.168 10.9126 13.6 12 13.6ZM13.1098 12.1793C12.7579 12.325 12.3808 12.4 12 12.4C11.2309 12.4 10.4932 12.0945 9.94939 11.5506C9.40553 11.0068 9.1 10.2691 9.1 9.5C9.1 8.73087 9.40553 7.99325 9.94939 7.44939C10.4932 6.90553 11.2309 6.6 12 6.6C12.3808 6.6 12.7579 6.67501 13.1098 6.82075C13.4616 6.96649 13.7813 7.1801 14.0506 7.44939C14.3199 7.71868 14.5335 8.03837 14.6793 8.39022C14.825 8.74206 14.9 9.11917 14.9 9.5C14.9 9.88083 14.825 10.2579 14.6793 10.6098C14.5335 10.9616 14.3199 11.2813 14.0506 11.5506C13.7813 11.8199 13.4616 12.0335 13.1098 12.1793Z" stroke="black" stroke-opacity="0.75" stroke-width="0.2"/>
<path fill-rule="evenodd" clip-rule="evenodd" d="M22 12C22 17.523 17.523 22 12 22C6.477 22 2 17.523 2 12C2 6.477 6.477 2 12 2C17.523 2 22 6.477 22 12ZM16.815 19.605C15.3757 20.5192 13.7051 21.0032 12 21C10.2542 21.0032 8.54553 20.4957 7.0845 19.54C6.9645 19.39 6.84283 19.235 6.7195 19.075C6.57645 18.8876 6.49929 18.6582 6.5 18.4225C6.5 17.884 6.887 17.4325 7.4045 17.357C10.827 16.857 13.1835 16.9 16.6105 17.3745C16.8586 17.4108 17.0851 17.5354 17.2486 17.7255C17.412 17.9156 17.5013 18.1583 17.5 18.409C17.5 18.649 17.4175 18.882 17.2685 19.064C17.1148 19.251 16.9637 19.4313 16.815 19.605ZM18.4925 18.233C18.4125 17.297 17.702 16.516 16.7475 16.384C13.2395 15.8985 10.7875 15.852 7.26 16.3675C6.3 16.5075 5.5925 17.2955 5.5085 18.234C3.89616 16.5595 2.99682 14.3245 3 12C3 7.0295 7.0295 3 12 3C16.9705 3 21 7.0295 21 12C21.0032 14.3241 20.1042 16.5586 18.4925 18.233Z" fill="black" fill-opacity="0.75"/>
<path d="M12.0002 20.9H11.9998C10.2788 20.9031 8.59435 20.4044 7.15259 19.465C7.0363 19.3195 6.91841 19.1692 6.79893 19.0142C6.66929 18.8444 6.59936 18.6365 6.6 18.4228V18.4225C6.6 17.9323 6.9519 17.5241 7.41894 17.456L7.41896 17.4559C10.8308 16.9575 13.1777 17.0002 16.5964 17.4735C16.8205 17.5064 17.0251 17.619 17.1728 17.7907C17.3205 17.9625 17.4012 18.1819 17.4 18.4085V18.409C17.4 18.6263 17.3253 18.8367 17.1912 19.0005C17.0413 19.1829 16.8938 19.359 16.7488 19.5286C15.3284 20.4274 13.6813 20.9031 12.0002 20.9ZM3.1 12.0001V12C3.1 7.08473 7.08473 3.1 12 3.1C16.9153 3.1 20.9 7.08473 20.9 12V12.0001C20.9031 14.2287 20.0672 16.3741 18.5632 18.0118C18.3978 17.1269 17.69 16.4134 16.7612 16.2849C13.2451 15.7983 10.7835 15.7515 7.24554 16.2686C6.31125 16.4048 5.60603 17.1256 5.43829 18.0134C3.93337 16.3755 3.09695 14.2295 3.1 12.0001ZM12 22.1C17.5782 22.1 22.1 17.5782 22.1 12C22.1 6.42177 17.5782 1.9 12 1.9C6.42177 1.9 1.9 6.42177 1.9 12C1.9 17.5782 6.42177 22.1 12 22.1Z" stroke="black" stroke-opacity="0.75" stroke-width="0.2"/>
</svg>
