<svg width="22" height="22" viewBox="0 0 22 22" fill="none" xmlns="http://www.w3.org/2000/svg">
<path fill-rule="evenodd" clip-rule="evenodd" d="M11 12.5C12.0609 12.5 13.0783 12.0786 13.8284 11.3284C14.5786 10.5783 15 9.56087 15 8.5C15 7.43913 14.5786 6.42172 13.8284 5.67157C13.0783 4.92143 12.0609 4.5 11 4.5C9.93913 4.5 8.92172 4.92143 8.17157 5.67157C7.42143 6.42172 7 7.43913 7 8.5C7 9.56087 7.42143 10.5783 8.17157 11.3284C8.92172 12.0786 9.93913 12.5 11 12.5ZM11 11.5C11.394 11.5 11.7841 11.4224 12.1481 11.2716C12.512 11.1209 12.8427 10.8999 13.1213 10.6213C13.3999 10.3427 13.6209 10.012 13.7716 9.64805C13.9224 9.28407 14 8.89397 14 8.5C14 8.10603 13.9224 7.71593 13.7716 7.35195C13.6209 6.98797 13.3999 6.65726 13.1213 6.37868C12.8427 6.1001 12.512 5.87913 12.1481 5.72836C11.7841 5.5776 11.394 5.5 11 5.5C10.2044 5.5 9.44129 5.81607 8.87868 6.37868C8.31607 6.94129 8 7.70435 8 8.5C8 9.29565 8.31607 10.0587 8.87868 10.6213C9.44129 11.1839 10.2044 11.5 11 11.5Z" fill="black" fill-opacity="0.75"/>
<path d="M11 12.6C12.0874 12.6 13.1302 12.168 13.8991 11.3991C14.668 10.6302 15.1 9.58739 15.1 8.5C15.1 7.41261 14.668 6.36976 13.8991 5.60086C13.1302 4.83196 12.0874 4.4 11 4.4C9.91261 4.4 8.86976 4.83196 8.10086 5.60086C7.33196 6.36976 6.9 7.41261 6.9 8.5C6.9 9.58739 7.33196 10.6302 8.10086 11.3991C8.86976 12.168 9.91261 12.6 11 12.6ZM12.1098 11.1793C11.7579 11.325 11.3808 11.4 11 11.4C10.2309 11.4 9.49325 11.0945 8.94939 10.5506C8.40553 10.0068 8.1 9.26913 8.1 8.5C8.1 7.73087 8.40553 6.99325 8.94939 6.44939C9.49325 5.90553 10.2309 5.6 11 5.6C11.3808 5.6 11.7579 5.67501 12.1098 5.82075C12.4616 5.96649 12.7813 6.1801 13.0506 6.44939C13.3199 6.71868 13.5335 7.03837 13.6793 7.39022C13.825 7.74206 13.9 8.11917 13.9 8.5C13.9 8.88083 13.825 9.25794 13.6793 9.60978C13.5335 9.96163 13.3199 10.2813 13.0506 10.5506C12.7813 10.8199 12.4616 11.0335 12.1098 11.1793Z" stroke="black" stroke-opacity="0.75" stroke-width="0.2"/>
<path fill-rule="evenodd" clip-rule="evenodd" d="M21 11C21 16.523 16.523 21 11 21C5.477 21 1 16.523 1 11C1 5.477 5.477 1 11 1C16.523 1 21 5.477 21 11ZM15.815 18.605C14.3757 19.5192 12.7051 20.0032 11 20C9.25417 20.0032 7.54553 19.4957 6.0845 18.54C5.9645 18.39 5.84283 18.235 5.7195 18.075C5.57645 17.8876 5.49929 17.6582 5.5 17.4225C5.5 16.884 5.887 16.4325 6.4045 16.357C9.827 15.857 12.1835 15.9 15.6105 16.3745C15.8586 16.4108 16.0851 16.5354 16.2486 16.7255C16.412 16.9156 16.5013 17.1583 16.5 17.409C16.5 17.649 16.4175 17.882 16.2685 18.064C16.1148 18.251 15.9637 18.4313 15.815 18.605ZM17.4925 17.233C17.4125 16.297 16.702 15.516 15.7475 15.384C12.2395 14.8985 9.7875 14.852 6.26 15.3675C5.3 15.5075 4.5925 16.2955 4.5085 17.234C2.89616 15.5595 1.99682 13.3245 2 11C2 6.0295 6.0295 2 11 2C15.9705 2 20 6.0295 20 11C20.0032 13.3241 19.1042 15.5586 17.4925 17.233Z" fill="black" fill-opacity="0.75"/>
<path d="M11.0002 19.9H10.9998C9.27881 19.9031 7.59435 19.4044 6.15259 18.465C6.0363 18.3195 5.91841 18.1692 5.79893 18.0142C5.66929 17.8444 5.59936 17.6365 5.6 17.4228V17.4225C5.6 16.9323 5.9519 16.5241 6.41894 16.456L6.41896 16.4559C9.83084 15.9575 12.1777 16.0002 15.5964 16.4735C15.8205 16.5064 16.0251 16.619 16.1728 16.7907C16.3205 16.9625 16.4012 17.1819 16.4 17.4085V17.409C16.4 17.6263 16.3253 17.8367 16.1912 18.0005C16.0413 18.1829 15.8938 18.359 15.7488 18.5286C14.3284 19.4274 12.6813 19.9031 11.0002 19.9ZM2.1 11.0001V11C2.1 6.08473 6.08473 2.1 11 2.1C15.9153 2.1 19.9 6.08473 19.9 11V11.0001C19.9031 13.2287 19.0672 15.3741 17.5632 17.0118C17.3978 16.1269 16.69 15.4134 15.7612 15.2849C12.2451 14.7983 9.78355 14.7515 6.24554 15.2686C5.31125 15.4048 4.60603 16.1256 4.43829 17.0134C2.93337 15.3755 2.09695 13.2295 2.1 11.0001ZM11 21.1C16.5782 21.1 21.1 16.5782 21.1 11C21.1 5.42177 16.5782 0.9 11 0.9C5.42177 0.9 0.9 5.42177 0.9 11C0.9 16.5782 5.42177 21.1 11 21.1Z" stroke="black" stroke-opacity="0.75" stroke-width="0.2"/>
</svg>
